<mxfile host="app.diagrams.net" agent="Mozilla/5.0 (Macintosh; Intel Mac OS X 10_15_7) AppleWebKit/537.36 (KHTML, like Gecko) Chrome/126.0.0.0 Safari/537.36" version="24.7.5">
  <diagram name="Page-1" id="70rtb1TZHkYZQ4AxwdGI">
    <mxGraphModel dx="1194" dy="606" grid="1" gridSize="10" guides="1" tooltips="1" connect="1" arrows="1" fold="1" page="1" pageScale="1" pageWidth="1100" pageHeight="850" math="0" shadow="0">
      <root>
        <mxCell id="0" />
        <mxCell id="1" parent="0" />
        <mxCell id="v1S4nsr0ZASxFet6DWL5-3" value="" style="whiteSpace=wrap;html=1;aspect=fixed;" vertex="1" parent="1">
          <mxGeometry x="721.5" y="265.75" width="120" height="120" as="geometry" />
        </mxCell>
        <mxCell id="v1S4nsr0ZASxFet6DWL5-33" style="edgeStyle=orthogonalEdgeStyle;shape=flexArrow;rounded=0;orthogonalLoop=1;jettySize=auto;html=1;strokeColor=default;align=center;verticalAlign=middle;fontFamily=Helvetica;fontSize=11;fontColor=default;labelBackgroundColor=default;endArrow=classic;fillColor=#F0FFA3;" edge="1" parent="1" source="v1S4nsr0ZASxFet6DWL5-26" target="v1S4nsr0ZASxFet6DWL5-4">
          <mxGeometry relative="1" as="geometry" />
        </mxCell>
        <mxCell id="v1S4nsr0ZASxFet6DWL5-11" style="edgeStyle=orthogonalEdgeStyle;rounded=0;orthogonalLoop=1;jettySize=auto;html=1;exitX=0.5;exitY=1;exitDx=0;exitDy=0;" edge="1" parent="1" source="v1S4nsr0ZASxFet6DWL5-1" target="v1S4nsr0ZASxFet6DWL5-4">
          <mxGeometry relative="1" as="geometry" />
        </mxCell>
        <mxCell id="v1S4nsr0ZASxFet6DWL5-1" value="" style="whiteSpace=wrap;html=1;aspect=fixed;" vertex="1" parent="1">
          <mxGeometry x="413.09" y="70" width="160" height="160" as="geometry" />
        </mxCell>
        <mxCell id="v1S4nsr0ZASxFet6DWL5-9" style="edgeStyle=orthogonalEdgeStyle;rounded=0;orthogonalLoop=1;jettySize=auto;html=1;exitX=0.5;exitY=0;exitDx=0;exitDy=0;" edge="1" parent="1" source="v1S4nsr0ZASxFet6DWL5-2" target="v1S4nsr0ZASxFet6DWL5-4">
          <mxGeometry relative="1" as="geometry">
            <mxPoint x="393" y="320" as="targetPoint" />
          </mxGeometry>
        </mxCell>
        <mxCell id="v1S4nsr0ZASxFet6DWL5-2" value="" style="whiteSpace=wrap;html=1;aspect=fixed;" vertex="1" parent="1">
          <mxGeometry x="433.09000000000003" y="460" width="120" height="120" as="geometry" />
        </mxCell>
        <mxCell id="v1S4nsr0ZASxFet6DWL5-10" style="edgeStyle=orthogonalEdgeStyle;rounded=0;orthogonalLoop=1;jettySize=auto;html=1;" edge="1" parent="1" source="v1S4nsr0ZASxFet6DWL5-3" target="v1S4nsr0ZASxFet6DWL5-4">
          <mxGeometry relative="1" as="geometry" />
        </mxCell>
        <mxCell id="v1S4nsr0ZASxFet6DWL5-17" value="" style="verticalLabelPosition=bottom;sketch=0;aspect=fixed;html=1;verticalAlign=top;strokeColor=none;align=center;outlineConnect=0;shape=mxgraph.citrix.laptop_1;" vertex="1" parent="1">
          <mxGeometry x="370" y="30" width="91" height="77" as="geometry" />
        </mxCell>
        <mxCell id="v1S4nsr0ZASxFet6DWL5-18" value="Linux Host" style="text;html=1;align=center;verticalAlign=middle;whiteSpace=wrap;rounded=0;" vertex="1" parent="1">
          <mxGeometry x="470" y="77" width="60" height="30" as="geometry" />
        </mxCell>
        <mxCell id="v1S4nsr0ZASxFet6DWL5-19" value="" style="verticalLabelPosition=bottom;sketch=0;aspect=fixed;html=1;verticalAlign=top;strokeColor=none;align=center;outlineConnect=0;shape=mxgraph.citrix.laptop_1;" vertex="1" parent="1">
          <mxGeometry x="370" y="410" width="91" height="77" as="geometry" />
        </mxCell>
        <mxCell id="v1S4nsr0ZASxFet6DWL5-20" value="" style="verticalLabelPosition=bottom;sketch=0;aspect=fixed;html=1;verticalAlign=top;strokeColor=none;align=center;outlineConnect=0;shape=mxgraph.citrix.laptop_1;" vertex="1" parent="1">
          <mxGeometry x="660" y="220" width="91" height="77" as="geometry" />
        </mxCell>
        <mxCell id="v1S4nsr0ZASxFet6DWL5-21" value="Linux Host" style="text;html=1;align=center;verticalAlign=middle;whiteSpace=wrap;rounded=0;" vertex="1" parent="1">
          <mxGeometry x="470" y="430" width="60" height="30" as="geometry" />
        </mxCell>
        <mxCell id="v1S4nsr0ZASxFet6DWL5-22" value="Linux Host" style="text;html=1;align=center;verticalAlign=middle;whiteSpace=wrap;rounded=0;" vertex="1" parent="1">
          <mxGeometry x="758.5" y="243.5" width="60" height="30" as="geometry" />
        </mxCell>
        <mxCell id="v1S4nsr0ZASxFet6DWL5-34" style="edgeStyle=orthogonalEdgeStyle;shape=flexArrow;rounded=0;orthogonalLoop=1;jettySize=auto;html=1;strokeColor=default;align=center;verticalAlign=middle;fontFamily=Helvetica;fontSize=11;fontColor=default;labelBackgroundColor=default;endArrow=classic;fillColor=#F0FFA3;" edge="1" parent="1" source="v1S4nsr0ZASxFet6DWL5-24" target="v1S4nsr0ZASxFet6DWL5-16">
          <mxGeometry relative="1" as="geometry" />
        </mxCell>
        <mxCell id="v1S4nsr0ZASxFet6DWL5-24" value="host_usage.sh&lt;div&gt;host_info.sh&lt;/div&gt;" style="verticalLabelPosition=bottom;sketch=0;aspect=fixed;html=1;verticalAlign=top;strokeColor=none;align=center;outlineConnect=0;shape=mxgraph.citrix.document;" vertex="1" parent="1">
          <mxGeometry x="440" y="127" width="37" height="56.68" as="geometry" />
        </mxCell>
        <mxCell id="v1S4nsr0ZASxFet6DWL5-31" style="edgeStyle=orthogonalEdgeStyle;shape=flexArrow;rounded=0;orthogonalLoop=1;jettySize=auto;html=1;strokeColor=default;align=center;verticalAlign=middle;fontFamily=Helvetica;fontSize=11;fontColor=default;labelBackgroundColor=default;endArrow=classic;fillColor=#F0FFA3;" edge="1" parent="1" source="v1S4nsr0ZASxFet6DWL5-25" target="v1S4nsr0ZASxFet6DWL5-4">
          <mxGeometry relative="1" as="geometry">
            <mxPoint x="550.09" y="516.9000000000001" as="sourcePoint" />
            <mxPoint x="573.09" y="360" as="targetPoint" />
            <Array as="points">
              <mxPoint x="530" y="517" />
            </Array>
          </mxGeometry>
        </mxCell>
        <mxCell id="v1S4nsr0ZASxFet6DWL5-25" value="host_usage.sh&lt;div&gt;host_info.sh&lt;/div&gt;" style="verticalLabelPosition=bottom;sketch=0;aspect=fixed;html=1;verticalAlign=top;strokeColor=none;align=center;outlineConnect=0;shape=mxgraph.citrix.document;" vertex="1" parent="1">
          <mxGeometry x="470" y="480" width="37" height="56.68" as="geometry" />
        </mxCell>
        <mxCell id="v1S4nsr0ZASxFet6DWL5-35" style="edgeStyle=orthogonalEdgeStyle;shape=flexArrow;rounded=0;orthogonalLoop=1;jettySize=auto;html=1;strokeColor=default;align=center;verticalAlign=middle;fontFamily=Helvetica;fontSize=11;fontColor=default;labelBackgroundColor=default;endArrow=classic;fillColor=#F0FFA3;" edge="1" parent="1" source="v1S4nsr0ZASxFet6DWL5-4" target="v1S4nsr0ZASxFet6DWL5-16">
          <mxGeometry relative="1" as="geometry" />
        </mxCell>
        <mxCell id="v1S4nsr0ZASxFet6DWL5-26" value="host_usage.sh&lt;div&gt;host_info.sh&lt;/div&gt;" style="verticalLabelPosition=bottom;sketch=0;aspect=fixed;html=1;verticalAlign=top;strokeColor=none;align=center;outlineConnect=0;shape=mxgraph.citrix.document;" vertex="1" parent="1">
          <mxGeometry x="763" y="280" width="37" height="56.68" as="geometry" />
        </mxCell>
        <mxCell id="v1S4nsr0ZASxFet6DWL5-4" value="" style="verticalLabelPosition=bottom;sketch=0;aspect=fixed;html=1;verticalAlign=top;strokeColor=none;align=center;outlineConnect=0;shape=mxgraph.citrix.switch;" vertex="1" parent="1">
          <mxGeometry x="436" y="300" width="114.17" height="51.5" as="geometry" />
        </mxCell>
        <mxCell id="v1S4nsr0ZASxFet6DWL5-12" value="Switch" style="text;html=1;align=center;verticalAlign=middle;whiteSpace=wrap;rounded=0;" vertex="1" parent="1">
          <mxGeometry x="410" y="280" width="60" height="30" as="geometry" />
        </mxCell>
        <mxCell id="v1S4nsr0ZASxFet6DWL5-16" value="Database" style="verticalLabelPosition=bottom;sketch=0;aspect=fixed;html=1;verticalAlign=top;strokeColor=none;align=center;outlineConnect=0;shape=mxgraph.citrix.database;" vertex="1" parent="1">
          <mxGeometry x="517.5" y="133.68" width="42.5" height="50" as="geometry" />
        </mxCell>
      </root>
    </mxGraphModel>
  </diagram>
</mxfile>
